<svg width="269" height="248" viewBox="0 0 269 248" fill="none" xmlns="http://www.w3.org/2000/svg">
<path d="M135 37C139.029 62.3541 171.652 70.9717 188 51.0003C178.63 74.9436 202.512 98.4872 226.799 89.25C206.541 105.367 215.282 137.528 241 141.5C215.282 145.472 206.541 177.633 226.799 193.75C202.512 184.513 178.63 208.056 188 232C171.652 212.028 139.029 220.646 135 246C130.971 220.646 98.3482 212.028 82 232C91.3698 208.056 67.4883 184.513 43.2013 193.75C63.4593 177.633 54.7181 145.472 29 141.5C54.7181 137.528 63.4593 105.367 43.2013 89.25C67.4883 98.4872 91.3698 74.9436 82 51.0003C98.3482 70.9717 130.971 62.3541 135 37Z" fill="white" stroke="black" stroke-width="3" stroke-linecap="round" stroke-linejoin="round"/>
<path d="M32.7313 156.259L24.7804 157.882L13.3998 167.929L12.8163 165.07L21.6792 157.429L21.5941 157.012L10.4457 153.456L9.86218 150.598L24.2698 155.381L32.2207 153.758L32.7313 156.259Z" fill="white"/>
<path d="M30.9673 127.476C30.8707 128.973 30.4718 130.277 29.7706 131.389C29.0707 132.481 28.1337 133.314 26.9596 133.888C25.7667 134.44 24.3917 134.666 22.8348 134.565L22.4405 134.54C20.9038 134.441 19.5794 134.041 18.4674 133.339C17.3566 132.618 16.5244 131.671 15.9707 130.498C15.4183 129.305 15.1904 127.96 15.287 126.464C15.3836 124.968 15.7818 123.674 16.4817 122.582C17.1829 121.47 18.13 120.638 19.323 120.085C20.5173 119.513 21.8828 119.276 23.4195 119.375L23.8138 119.401C25.3707 119.501 26.7045 119.912 27.8153 120.634C28.9071 121.334 29.7292 122.28 30.2816 123.473C30.8353 124.646 31.0639 125.98 30.9673 127.476ZM28.8139 127.337C28.9157 125.76 28.5013 124.475 27.5706 123.481C26.6209 122.465 25.2969 121.902 23.5984 121.793L23.3255 121.775C21.627 121.666 20.2517 122.054 19.1996 122.94C18.1286 123.805 17.5422 125.026 17.4404 126.603C17.3399 128.16 17.7644 129.446 18.7141 130.462C19.6435 131.476 20.9574 132.038 22.6558 132.148L22.9288 132.165C24.6273 132.275 26.0127 131.887 27.085 131.002C28.1371 130.116 28.7134 128.894 28.8139 127.337Z" fill="white"/>
<path d="M35.7839 101.681C35.4356 102.697 34.8932 103.561 34.1567 104.272C33.4267 104.964 32.5451 105.412 31.5117 105.614C30.4658 105.791 29.3199 105.666 28.0741 105.239L19.5641 102.321L20.3428 100.05L28.6803 102.909C30.0794 103.388 31.2135 103.392 32.0826 102.918C32.9582 102.426 33.5997 101.586 34.0072 100.397C34.4671 99.0557 34.4042 97.8025 33.8182 96.6378C33.2322 95.473 32.0672 94.5916 30.323 93.9936L23.2506 91.5688L24.0293 89.2976L38.0879 94.1176L37.329 96.3313L34.9427 95.5132L34.8047 95.9157C35.3704 96.4524 35.803 97.1897 36.1026 98.1278C36.383 99.0593 36.2767 100.244 35.7839 101.681Z" fill="white"/>
<path d="M60.0595 61.9302C59.0546 62.9597 57.9313 63.6753 56.6896 64.0772C55.4476 64.4504 54.1798 64.4728 52.8863 64.1446C51.6069 63.8018 50.4018 63.0784 49.2709 61.9745L49.0316 61.741C47.8862 60.6229 47.134 59.4355 46.7749 58.179C46.4155 56.8938 46.4146 55.6329 46.7723 54.3963C47.1295 53.1312 47.8106 51.9838 48.8155 50.9544C49.8062 49.9395 50.8368 49.2608 51.9073 48.9183C52.9919 48.5613 54.0441 48.4841 55.0639 48.6868C56.0978 48.8749 57.0266 49.2577 57.8502 49.8352L56.5635 51.8495C55.9708 51.4125 55.3225 51.1194 54.6186 50.9703C53.9289 50.8067 53.22 50.8368 52.4919 51.0605C51.7639 51.2842 51.0602 51.744 50.3808 52.44C49.6873 53.1504 49.2241 53.9441 48.9911 54.8209C48.7722 55.6832 48.7973 56.5713 49.0662 57.4851C49.3493 58.3843 49.9041 59.2373 50.7305 60.044L50.9263 60.2351C51.7527 61.0419 52.6189 61.5759 53.5247 61.8372C54.4447 62.084 55.3331 62.0876 56.1899 61.848C57.0608 61.5939 57.8431 61.1116 58.5366 60.4012C59.5698 59.3427 60.0798 58.2691 60.0667 57.1803C60.0677 56.077 59.7259 55.0639 59.0413 54.1408L61.067 52.8053C61.6072 53.6441 61.9839 54.5781 62.1969 55.6072C62.4099 56.6362 62.3511 57.6972 62.0204 58.7902C61.7039 59.8686 61.0502 60.9153 60.0595 61.9302Z" fill="white"/>
<path d="M75.7598 48.1986L64.0152 30.4593L66.0173 29.1338L77.7618 46.8731L75.7598 48.1986Z" fill="white"/>
<path d="M90.1317 40.0199L83.9995 26.482L86.1866 25.4913L92.3188 39.0292L90.1317 40.0199ZM84.1538 23.8764C83.674 24.0937 83.1969 24.1208 82.7225 23.9575C82.2666 23.7859 81.93 23.4601 81.7126 22.9802C81.4869 22.4819 81.4599 22.0048 81.6315 21.5489C81.8216 21.0847 82.1566 20.7439 82.6365 20.5265C83.1163 20.3091 83.5842 20.2863 84.0401 20.4579C84.496 20.6296 84.8368 20.9645 85.0625 21.4629C85.2799 21.9427 85.3027 22.4106 85.1311 22.8665C84.9595 23.3224 84.6337 23.659 84.1538 23.8764Z" fill="white"/>
<path d="M112.168 33.0299C110.762 33.3335 109.43 33.3101 108.173 32.9597C106.931 32.5853 105.862 31.9041 104.964 30.9163C104.087 29.9243 103.481 28.6559 103.148 27.111L103.077 26.7843C102.739 25.2196 102.767 23.8144 103.162 22.5684C103.572 21.2984 104.267 20.2466 105.248 19.4129C106.244 18.5552 107.445 17.9745 108.851 17.6709C110.238 17.3715 111.472 17.3746 112.553 17.68C113.655 17.9811 114.575 18.4976 115.313 19.2295C116.072 19.9571 116.635 20.789 117.003 21.7253L114.818 22.6945C114.565 22.0029 114.186 21.4006 113.681 20.8877C113.197 20.3706 112.589 20.0043 111.858 19.7889C111.128 19.5735 110.287 19.5685 109.337 19.7737C108.366 19.9833 107.542 20.3893 106.863 20.9918C106.205 21.59 105.736 22.3443 105.455 23.2547C105.195 24.1608 105.187 25.1783 105.43 26.3072L105.488 26.5746C105.732 27.7035 106.159 28.6269 106.77 29.3448C107.401 30.0585 108.14 30.5519 108.987 30.8251C109.853 31.0941 110.772 31.1238 111.742 30.9142C113.188 30.6021 114.206 29.9884 114.796 29.0733C115.406 28.1539 115.68 27.1204 115.619 25.9729L118.045 25.9775C118.033 26.9752 117.831 27.9619 117.441 28.9376C117.05 29.9132 116.415 30.7654 115.536 31.4942C114.677 32.2186 113.554 32.7306 112.168 33.0299Z" fill="white"/>
<path d="M132.693 30.0823L133.635 8.82835L136.034 8.93469L135.479 21.4441L135.904 21.463L142.976 15.6616L146.316 15.8097L137.767 22.6712L145.901 30.6678L142.591 30.5211L135.803 23.7402L135.378 23.7214L135.092 30.1886L132.693 30.0823Z" fill="white"/>
<path d="M164.625 35.278C163.193 34.8331 162.029 34.1424 161.132 33.2059C160.241 32.2501 159.666 31.1275 159.409 29.8382C159.152 28.5489 159.249 27.1787 159.7 25.7275L159.808 25.3792C160.265 23.9087 160.965 22.7151 161.907 21.7986C162.85 20.8821 163.947 20.2893 165.197 20.0201C166.454 19.7316 167.769 19.8008 169.143 20.2277C170.478 20.6425 171.568 21.2995 172.413 22.1986C173.264 23.0784 173.815 24.1406 174.064 25.3851C174.314 26.6297 174.217 27.9679 173.772 29.3998L173.447 30.4446L161.867 26.8463C161.45 28.3929 161.57 29.7459 162.229 30.9052C162.893 32.0451 163.922 32.8315 165.315 33.2644C166.534 33.6432 167.559 33.6542 168.391 33.2975C169.224 32.9408 169.934 32.4296 170.523 31.7638L172.199 33.3349C171.722 33.8445 171.13 34.3181 170.421 34.7556C169.731 35.1991 168.908 35.4947 167.949 35.6425C167.01 35.7963 165.902 35.6749 164.625 35.278ZM162.482 24.9688L171.711 27.8366C172.043 26.4968 171.907 25.33 171.303 24.3362C170.719 23.3484 169.788 22.6561 168.511 22.2593C167.215 21.8565 166.037 21.8935 164.976 22.3702C163.916 22.847 163.084 23.7131 162.482 24.9688Z" fill="white"/>
<path d="M189.037 46.4567C187.967 45.7615 187.146 44.8666 186.577 43.7719C186.007 42.6772 185.774 41.4746 185.876 40.1639C185.978 38.8532 186.46 37.5351 187.32 36.2097L187.536 35.8783C188.396 34.5528 189.399 33.5853 190.544 32.9758C191.7 32.3493 192.885 32.0681 194.099 32.1321C195.342 32.1902 196.507 32.5724 197.595 33.2786C198.462 33.8414 199.115 34.4349 199.555 35.059C200.024 35.6772 200.329 36.2861 200.471 36.8857C200.624 37.4683 200.676 38.0213 200.626 38.5446L200.983 38.7763L205.75 31.4353L207.763 32.743L196.177 50.5856L194.214 49.3111L195.555 47.2464L195.198 47.0147C194.45 47.4227 193.559 47.6414 192.525 47.6707C191.491 47.7001 190.329 47.2954 189.037 46.4567ZM190.731 45.02C192.023 45.8587 193.332 46.1295 194.661 45.8325C196.017 45.5296 197.175 44.6389 198.135 43.1605L198.284 42.9311C199.245 41.4527 199.582 40.0408 199.296 38.6955C199.038 37.3442 198.263 36.2492 196.971 35.4105C195.697 34.5829 194.373 34.315 193 34.6069C191.654 34.8929 190.502 35.7751 189.542 37.2535L189.393 37.4829C188.433 38.9613 188.09 40.3817 188.365 41.744C188.668 43.1004 189.457 44.1924 190.731 45.02Z" fill="white"/>
<path d="M219.369 74.4368L237.584 63.4449L238.824 65.5006L231.304 70.0387L231.524 70.403C232.01 70.3462 232.523 70.3918 233.062 70.5398C233.629 70.6948 234.192 70.9818 234.753 71.4008C235.324 71.8372 235.871 72.4891 236.394 73.3565C236.97 74.3106 237.275 75.2863 237.309 76.2835C237.37 77.2876 237.147 78.2507 236.639 79.1728C236.147 80.0845 235.329 80.8857 234.184 81.5767L226.482 86.2247L225.241 84.1689L232.788 79.6152C234.054 78.851 234.78 77.9752 234.965 76.9879C235.161 76.0179 234.934 74.9951 234.285 73.9195C233.542 72.6878 232.535 71.9224 231.266 71.6233C230.008 71.3416 228.589 71.677 227.011 72.6296L220.609 76.4925L219.369 74.4368Z" fill="white"/>
<path d="M233.483 105.591C233.073 104.149 233.014 102.796 233.308 101.533C233.621 100.264 234.248 99.1694 235.187 98.2493C236.126 97.3292 237.326 96.6612 238.787 96.2455L239.138 96.1457C240.619 95.7244 242.001 95.6578 243.284 95.946C244.567 96.2342 245.663 96.8283 246.572 97.7283C247.5 98.6228 248.161 99.7619 248.555 101.146C248.937 102.49 248.983 103.762 248.692 104.961C248.421 106.155 247.832 107.197 246.927 108.086C246.021 108.976 244.847 109.626 243.405 110.036L242.353 110.335L239.035 98.6713C237.512 99.1677 236.445 100.008 235.834 101.193C235.243 102.373 235.147 103.664 235.546 105.067C235.895 106.295 236.447 107.16 237.2 107.662C237.954 108.163 238.77 108.479 239.65 108.608L239.25 110.87C238.563 110.75 237.843 110.512 237.089 110.158C236.34 109.823 235.643 109.295 234.995 108.573C234.353 107.871 233.849 106.877 233.483 105.591ZM240.944 98.1601L243.588 107.456C244.891 107.001 245.793 106.249 246.296 105.201C246.803 104.172 246.874 103.014 246.509 101.728C246.137 100.422 245.462 99.4554 244.483 98.828C243.504 98.2006 242.324 97.978 240.944 98.1601Z" fill="white"/>
<path d="M237.667 125.975L252.518 125.412L252.607 127.751L250.785 127.82L250.801 128.245C251.459 128.484 251.95 128.871 252.274 129.406C252.599 129.941 252.778 130.654 252.811 131.545L252.878 133.306L250.692 133.389L250.619 131.476C250.578 130.403 250.242 129.544 249.609 128.899C248.997 128.273 248.064 127.984 246.808 128.031L237.758 128.374L237.667 125.975Z" fill="white"/>
<path d="M235.418 154.536C235.718 153.067 236.289 151.839 237.131 150.853C237.993 149.871 239.053 149.188 240.31 148.803C241.568 148.419 242.941 148.379 244.43 148.683L244.787 148.756C246.296 149.064 247.553 149.641 248.559 150.487C249.565 151.334 250.264 152.366 250.657 153.583C251.069 154.805 251.131 156.12 250.844 157.53C250.564 158.899 250.019 160.05 249.209 160.98C248.418 161.915 247.416 162.569 246.203 162.941C244.989 163.314 243.648 163.35 242.179 163.051L241.107 162.832L243.532 150.95C241.952 150.69 240.618 150.945 239.53 151.715C238.462 152.49 237.782 153.592 237.49 155.021C237.235 156.272 237.326 157.293 237.764 158.086C238.202 158.878 238.782 159.534 239.503 160.054L238.107 161.878C237.552 161.455 237.022 160.912 236.516 160.251C236.006 159.609 235.629 158.818 235.387 157.88C235.14 156.961 235.15 155.846 235.418 154.536ZM245.462 151.375L243.529 160.845C244.895 161.041 246.043 160.789 246.971 160.089C247.896 159.409 248.492 158.414 248.759 157.104C249.031 155.774 248.876 154.605 248.296 153.598C247.716 152.59 246.771 151.849 245.462 151.375Z" fill="white"/>
<path d="M104.84 155.862C106.235 158.719 107.974 161.383 110.036 163.751M104.84 155.862C106.205 158.739 107.957 161.392 110.036 163.751M104.84 155.862L102.194 163.327M104.84 155.862L112.729 156.93M110.036 163.751C112.09 166.113 114.465 168.179 117.137 169.848M110.036 163.751C112.101 166.096 114.488 168.152 117.137 169.848M117.137 169.848C122.488 173.191 128.816 174.803 135.105 174.767C141.394 174.731 147.547 172.907 152.86 169.503C158.174 166.1 162.435 161.253 165.157 155.517M165.157 155.517L167.803 162.983M165.157 155.517L157.269 156.585M188.296 141C188.296 170.435 164.435 194.297 135 194.297C105.565 194.297 81.7031 170.435 81.7031 141C81.7031 111.565 105.565 87.7034 135 87.7034C164.435 87.7034 188.296 111.565 188.296 141ZM126.957 128.888C126.957 139.52 124.084 148.138 120.54 148.138C116.997 148.138 114.124 139.52 114.124 128.888C114.124 118.256 116.997 109.638 120.54 109.638C124.084 109.638 126.957 118.256 126.957 128.888ZM155.832 128.888C155.832 139.52 152.959 148.138 149.415 148.138C145.871 148.138 142.998 139.52 142.998 128.888C142.998 118.256 145.871 109.638 149.415 109.638C152.959 109.638 155.832 118.256 155.832 128.888Z" stroke="black" stroke-width="3" stroke-miterlimit="10" stroke-linecap="round" stroke-linejoin="round"/>
</svg>
