<svg width="600" height="600" viewBox="0 0 600 600" fill="none" xmlns="http://www.w3.org/2000/svg">
<path d="M550 155.257V443.772L501.856 471.552L399.842 530.417M550 155.257L501.856 183.038L399.842 241.903L352.632 269.145L300 299.514M550 155.257L501.856 127.477L450.849 156.149M300 588.029V299.514M300 588.029L247.368 557.659L98.144 471.552L50 443.772V269.145M300 588.029L352.632 557.659V496.919M50 155.257L98.144 183.038L247.368 269.145L300 299.514M50 155.257V212.201L98.144 240.944M50 155.257L98.144 127.477L300 11L399.842 68.6117L450.849 98.0443M98.144 240.944L147.885 269.145M98.144 240.944L50 269.145M98.144 413.402L247.368 496.919V441.602M98.144 413.402L147.885 385.201M98.144 413.402V299.514M452.115 269.145L352.632 325.546V441.602M452.115 269.145L501.856 240.944V413.402M452.115 269.145V385.201M452.115 385.201L501.856 413.402M452.115 385.201L352.632 441.602M147.885 269.145L247.368 325.546V441.602M147.885 269.145V385.201M147.885 269.145L98.144 299.514M147.885 385.201L247.368 441.602M501.856 413.402L399.842 471.552M399.842 530.417V471.552M399.842 530.417L352.632 496.919M399.842 471.552L352.632 441.602M352.632 441.602V496.919M98.144 299.514L50 269.145M300 68.6117L147.565 155.257L200.158 184.821M300 68.6117L399.842 122.718M300 68.6117V127.477M399.842 122.718L450.849 98.0443M399.842 122.718V184.821M450.849 98.0443V156.149M399.842 184.821L300 240.944L200.158 184.821M399.842 184.821L300 127.477M399.842 184.821L450.849 156.149M300 127.477L200.158 184.821" stroke="black" stroke-width="8" stroke-linecap="round" stroke-linejoin="round"/>
</svg>
