<svg width="600" height="600" viewBox="0 0 600 600" fill="none" xmlns="http://www.w3.org/2000/svg">
<path d="M550.001 155.377L300.001 11L50.0005 155.377M550.001 155.377L300.001 299.754M550.001 155.377L550 208.568L448.679 267.082M300.001 588.508L550.001 444.131L550 327.978M300.001 588.508L50.0005 444.131V327.978M300.001 588.508V472.355M50.0005 155.377L300.001 299.754M50.0005 155.377L50 208.568L151.321 267.082M300.001 299.754L300 352.945M300 352.945L399.001 297M300 352.945L201.501 297M300.001 472.355L550 327.978M300.001 472.355L50.0005 327.978M550 327.978L448.679 267.082M50.0005 327.978L151.321 267.082M151.321 267.082L201.501 297M448.679 267.082L399.001 297M399.001 297L448.679 327.978L300.001 413.736L151.321 327.978L201.501 297" stroke="black" stroke-width="8" stroke-linecap="round" stroke-linejoin="round"/>
</svg>
