<svg width="600" height="600" viewBox="0 0 600 600" fill="none" xmlns="http://www.w3.org/2000/svg">
<path d="M550 155.348L300 11L50 155.348M550 155.348V444.043L300 588.39M550 155.348L300 299.695M300 588.39L50 444.043V155.348M300 588.39V299.695M50 155.348L300 299.695M300 67.0154L150.277 155.348L199.825 185.51L249.374 155.348L300 185.51M300 67.0154L443.26 155.348L400.175 185.51L350.626 155.348L300 185.51M300 67.0154V185.51M496.041 412.887V247.988L443.26 274.919V330.934L400.175 357.535M496.041 412.887L350.626 498.981V444.043L400.175 412.887V357.535M496.041 412.887L400.175 357.535M99.6508 415.375V247.988L150.277 274.919V330.934L199.825 357.535M99.6508 415.375L249.374 498.981V444.043L199.825 412.887V357.535M99.6508 415.375L199.825 357.535" stroke="black" stroke-width="8" stroke-linecap="round" stroke-linejoin="round"/>
</svg>
