<svg width="600" height="600" viewBox="0 0 600 600" fill="none" xmlns="http://www.w3.org/2000/svg">
<path d="M550 155.304V443.911L498.937 473.385L399.468 530.8L349.734 559.507L300 588.214M550 155.304L498.937 125.829L399.468 68.4145L349.734 97.3775M550 155.304L499.601 184.394M300 588.214L250.266 559.507L101.063 473.385L50 443.911V155.304M300 588.214V523.359V414.436M50 155.304L101.063 125.829L250.266 39.7073L300 11L349.734 39.7072M50 155.304L300 299.607M349.734 39.7072L300 68.8337L152.351 155.304L250.266 211.575M349.734 39.7072V97.3775M300 240.156V183.948M300 240.156L250.266 211.575M300 240.156L399.468 182.993M499.601 414.82L449.203 385.729M499.601 414.82V184.394M499.601 414.82L349.734 496.128V385.126M101.063 414.436V240.156L203.32 299.607M101.063 414.436L148.634 386.977M101.063 414.436L250.266 496.128V443.911L148.634 386.977M449.203 213.485V385.729M449.203 213.485L300 299.607M449.203 213.485L399.468 182.993M449.203 385.729L399.468 414.436M300 355.815L399.468 299.607L399.468 357.022L399.468 414.436M300 355.815L349.734 385.126M300 355.815L203.32 299.607M300 355.815V299.607M300 414.436L148.634 328.792M300 414.436L349.734 385.126M148.634 328.792V386.977M148.634 328.792L203.32 299.607M399.468 414.436L349.734 385.126M250.266 155.304L300 183.948M250.266 155.304V211.575M250.266 155.304L349.734 97.3775M300 183.948L399.468 125.829M499.601 184.394L448.766 154.662L399.468 125.829M399.468 125.829V182.993" stroke="black" stroke-width="8" stroke-linecap="round" stroke-linejoin="round"/>
</svg>
