<svg width="600" height="600" viewBox="0 0 600 600" fill="none" xmlns="http://www.w3.org/2000/svg">
<path d="M300 11L50 155.27M300 11L383.294 59.0675M300 11V107.169M550 155.27V443.81M550 155.27L466.589 203.405M550 155.27L466.589 107.135M550 443.81L466.589 491.945M550 443.81L466.589 395.675M300 588.08L50 443.81M300 588.08L383.177 540.08M300 588.08V492.046M50 443.81V347.675M50 443.81L133.265 395.759M50 155.27L300 299.54M50 155.27V251.54M300 299.54L383.177 251.54M300 299.54V395.81M383.177 251.54L466.589 203.405M383.177 251.54V443.81M383.177 540.08L466.589 491.945M383.177 540.08V443.81M383.177 540.08L341.589 516.063L300 492.046M466.589 203.405V107.135M466.589 203.405V395.675M466.589 491.945V395.675M466.589 491.945L383.177 443.81M50 251.54V347.675M50 251.54L133.271 299.594M50 251.54L300 107.169M50 347.675L133.265 395.759M50 347.675L133.271 299.594M466.589 107.135L383.294 59.0675M466.589 107.135L383.259 155.25M383.294 59.0675L383.259 155.25M383.294 59.0675L300 107.169M133.265 395.759L300 492.046M133.271 299.594L300 395.81M216.6 251.479L299.93 203.364L383.259 155.25M300 395.81V492.046" stroke="black" stroke-width="8" stroke-linecap="round" stroke-linejoin="round"/>
</svg>
