<svg width="600" height="600" viewBox="0 0 600 600" fill="none" xmlns="http://www.w3.org/2000/svg">
<path d="M550 155.377L300 11L50 155.377M550 155.377L300 299.754M550 155.377V209.249L499.929 238.597M300 588.508L550 444.131V383.794M300 588.508L50 444.131V383.794M300 588.508V529.248M50 155.377L300 299.754M50 155.377V209.249L100.655 238.939M300 299.754V355.781M300 529.248L550 383.794M300 529.248L50 383.794M550 383.794L494.853 355.305M50 383.794L105.147 355.305M300 467.834V411.808M300 467.834L494.853 355.305M300 467.834L105.147 355.305M300 355.781L494.853 241.572L499.929 238.597M300 355.781L105.147 241.572L100.655 238.939M300 411.808L550 266.353M300 411.808L50 266.353M550 266.353V323.457L494.853 355.305M550 266.353L499.929 238.597M50 266.353V323.457L105.147 355.305M50 266.353L100.655 238.939M300 71.3366L156.74 155.377L203.299 183.39M300 71.3366L448.646 155.377L400.336 183.39M300 71.3366V127.363M300 241.572L251.65 212.481M300 241.572L350.168 212.481M300 241.572V212.481V183.39M300 127.363L203.299 183.39M300 127.363L400.336 183.39M203.299 183.39L251.65 212.481M400.336 183.39L350.168 212.481M300 183.39L251.65 212.481M300 183.39L350.168 212.481" stroke="black" stroke-width="8" stroke-linecap="round" stroke-linejoin="round"/>
</svg>
