<svg width="133" height="133" viewBox="0 0 133 133" fill="none" xmlns="http://www.w3.org/2000/svg">
<path fill-rule="evenodd" clip-rule="evenodd" d="M1 33.75C1 51.8373 8.47796 66.5 17.7025 66.5H33.75C15.6627 66.5 1 73.978 1 83.2025L1 115.298C1 124.522 15.6627 132 33.75 132C51.8373 132 66.5 124.522 66.5 115.298V99.25C66.5 117.337 73.978 132 83.2025 132L115.298 132C124.522 132 132 117.337 132 99.25C132 81.1627 124.522 66.5 115.298 66.5H99.2662C117.346 66.4955 132 59.0193 132 49.7975V17.7025C132 8.47796 117.337 1 99.25 1C81.1627 0.999999 66.5 8.47796 66.5 17.7025V33.75C66.5 15.6627 59.022 1 49.7975 1H17.7025C8.47796 1 1 15.6627 1 33.75ZM66.5 33.75V49.7975C66.5 59.0193 81.1539 66.4955 99.2338 66.5H83.2025C73.978 66.5 66.5 81.1627 66.5 99.25V83.2025C66.5 73.978 51.8373 66.5 33.75 66.5H49.7975C59.022 66.5 66.5 51.8373 66.5 33.75Z" fill="white"/>
<path d="M17.7025 66.5C8.47796 66.5 1 51.8373 1 33.75C1 15.6627 8.47796 1 17.7025 1H49.7975M17.7025 66.5H49.7975M17.7025 66.5H33.75M66.5 33.75C66.5 51.8373 59.022 66.5 49.7975 66.5M66.5 33.75C66.5 15.6627 59.022 1 49.7975 1M66.5 33.75V17.7025M66.5 33.75V49.7975M49.7975 66.5C40.573 66.5 33.095 51.8373 33.095 33.75C33.095 15.6627 40.573 1 49.7975 1M49.7975 66.5H33.75M66.5 115.297C66.5 124.522 51.8373 132 33.75 132C15.6627 132 1 124.522 1 115.297L1 83.2025M66.5 115.297V83.2025M66.5 115.297L66.5 99.25M33.75 66.5C51.8373 66.5 66.5 73.978 66.5 83.2025M33.75 66.5C15.6627 66.5 1 73.978 1 83.2025M66.5 83.2025C66.5 92.427 51.8373 99.905 33.75 99.905C15.6627 99.905 1 92.427 1 83.2025M66.5 83.2025L66.5 99.25M66.5 17.7025C66.5 8.47796 81.1627 0.999999 99.25 1C117.337 1 132 8.47796 132 17.7025V49.7975M66.5 17.7025V49.7975M66.5 49.7975C66.5 40.573 81.1627 33.095 99.25 33.095C117.337 33.095 132 40.573 132 49.7975M66.5 49.7975C66.5 59.0193 81.1539 66.4955 99.2338 66.5M132 49.7975C132 59.0193 117.346 66.4955 99.2662 66.5M66.5 99.25C66.5 81.1627 73.978 66.5 83.2025 66.5M66.5 99.25C66.5 117.337 73.978 132 83.2025 132M83.2025 66.5C92.427 66.5 99.905 81.1627 99.905 99.25C99.905 117.337 92.427 132 83.2025 132M83.2025 66.5H99.2338M83.2025 132L115.297 132C124.522 132 132 117.337 132 99.25C132 81.1627 124.522 66.5 115.298 66.5H99.2662M99.2662 66.5L99.2338 66.5M99.2662 66.5C99.2608 66.5 99.2554 66.5 99.25 66.5C99.2446 66.5 99.2392 66.5 99.2338 66.5" stroke="black" stroke-width="1.048" stroke-linejoin="round"/>
<path d="M33.75 66.5C51.8373 66.5 66.5 73.978 66.5 83.2025C66.5 92.427 51.8373 99.905 33.75 99.905C15.6627 99.905 1 92.427 1 83.2025C1 73.978 15.6627 66.5 33.75 66.5Z" fill="#F9F9F9" stroke="black" stroke-width="1.048" stroke-linejoin="round"/>
<path d="M66.5 99.25C66.5 81.1627 73.978 66.5 83.2025 66.5C92.427 66.5 99.905 81.1627 99.905 99.25C99.905 117.337 92.427 132 83.2025 132C73.978 132 66.5 117.337 66.5 99.25Z" fill="#F9F9F9" stroke="black" stroke-width="1.048" stroke-linejoin="round"/>
<path d="M99.25 66.5C81.1627 66.5 66.5 59.022 66.5 49.7975C66.5 40.573 81.1627 33.095 99.25 33.095C117.337 33.095 132 40.573 132 49.7975C132 59.022 117.337 66.5 99.25 66.5Z" fill="#F9F9F9" stroke="black" stroke-width="1.048" stroke-linejoin="round"/>
<path d="M66.5 33.75C66.5 51.8373 59.0221 66.5 49.7975 66.5C40.573 66.5 33.095 51.8373 33.095 33.75C33.095 15.6627 40.573 1 49.7975 1C59.0221 1 66.5 15.6627 66.5 33.75Z" fill="#F9F9F9" stroke="black" stroke-width="1.048" stroke-linejoin="round"/>
</svg>
