<svg width="448" height="448" viewBox="0 0 448 448" fill="none" xmlns="http://www.w3.org/2000/svg">
<path fill-rule="evenodd" clip-rule="evenodd" d="M2 113C2 174.304 27.3452 224 58.61 224H113C51.6964 224 2 249.345 2 280.61L2 389.39C2.00001 420.655 51.6964 446 113 446C174.304 446 224 420.655 224 389.39L224 335C224 396.304 249.345 446 280.61 446L389.39 446C420.655 446 446 396.304 446 335C446 273.696 420.655 224 389.39 224H335.055C396.333 223.985 446 198.646 446 167.39V58.61C446 27.3452 396.304 2 335 2C273.696 2 224 27.3452 224 58.61V113C224 51.6964 198.655 2 167.39 2H58.61C27.3452 2 2 51.6964 2 113ZM224 113V167.39C224 198.646 273.667 223.985 334.945 224H280.61C249.345 224 224 273.696 224 335L224 280.61C224 249.345 174.304 224 113 224H167.39C198.655 224 224 174.304 224 113Z" fill="white"/>
<path d="M58.61 224C27.3452 224 2 174.304 2 113C2 51.6964 27.3452 2 58.61 2H167.39M58.61 224H167.39M58.61 224H113M224 113C224 174.304 198.655 224 167.39 224M224 113C224 51.6964 198.655 2 167.39 2M224 113V58.61M224 113V167.39M167.39 224C136.125 224 110.78 174.304 110.78 113C110.78 51.6964 136.125 2 167.39 2M167.39 224H113M224 389.39C224 420.655 174.304 446 113 446C51.6964 446 2.00001 420.655 2 389.39L2 280.61M224 389.39V280.61M224 389.39L224 335M113 224C174.304 224 224 249.345 224 280.61M113 224C51.6964 224 2 249.345 2 280.61M224 280.61C224 311.875 174.304 337.22 113 337.22C51.6964 337.22 2 311.875 2 280.61M224 280.61L224 335M224 58.61C224 27.3452 273.696 2 335 2C396.304 2 446 27.3452 446 58.61V167.39M224 58.61V167.39M224 167.39C224 136.125 273.696 110.78 335 110.78C396.304 110.78 446 136.125 446 167.39M224 167.39C224 198.646 273.667 223.985 334.945 224M446 167.39C446 198.646 396.333 223.985 335.055 224M224 335C224 273.696 249.345 224 280.61 224M224 335C224 396.304 249.345 446 280.61 446M280.61 224C311.875 224 337.22 273.696 337.22 335C337.22 396.304 311.875 446 280.61 446M280.61 224H334.945M280.61 446L389.39 446C420.655 446 446 396.304 446 335C446 273.696 420.655 224 389.39 224H335.055M335.055 224L334.945 224M335.055 224C335.037 224 335.018 224 335 224C334.982 224 334.963 224 334.945 224" stroke="black" stroke-width="3.552" stroke-linejoin="round"/>
<path d="M113 224C174.304 224 224 249.345 224 280.61C224 311.875 174.304 337.22 113 337.22C51.6964 337.22 2 311.875 2 280.61C2 249.345 51.6964 224 113 224Z" fill="#F9F9F9" stroke="black" stroke-width="3.552" stroke-linejoin="round"/>
<path d="M224 335C224 273.696 249.345 224 280.61 224C311.875 224 337.22 273.696 337.22 335C337.22 396.304 311.875 446 280.61 446C249.345 446 224 396.304 224 335Z" fill="#F9F9F9" stroke="black" stroke-width="3.552" stroke-linejoin="round"/>
<path d="M335 224C273.696 224 224 198.655 224 167.39C224 136.125 273.696 110.78 335 110.78C396.304 110.78 446 136.125 446 167.39C446 198.655 396.304 224 335 224Z" fill="#F9F9F9" stroke="black" stroke-width="3.552" stroke-linejoin="round"/>
<path d="M224.001 113C224.001 174.304 198.656 224 167.391 224C136.126 224 110.781 174.304 110.781 113C110.781 51.6964 136.126 2 167.391 2C198.656 2 224.001 51.6964 224.001 113Z" fill="#F9F9F9" stroke="black" stroke-width="3.552" stroke-linejoin="round"/>
<ellipse cx="160.5" cy="96" rx="6.5" ry="35" fill="black"/>
<ellipse cx="160.5" cy="96" rx="6.5" ry="35" fill="black"/>
<ellipse cx="186.5" cy="96" rx="6.5" ry="35" fill="black"/>
<ellipse cx="186.5" cy="96" rx="6.5" ry="35" fill="black"/>
<ellipse cx="257.5" cy="316" rx="6.5" ry="35" fill="black"/>
<ellipse cx="257.5" cy="316" rx="6.5" ry="35" fill="black"/>
<ellipse cx="283.5" cy="316" rx="6.5" ry="35" fill="black"/>
<ellipse cx="283.5" cy="316" rx="6.5" ry="35" fill="black"/>
<ellipse cx="352" cy="187.5" rx="6.5" ry="35" transform="rotate(-90 352 187.5)" fill="black"/>
<ellipse cx="352" cy="187.5" rx="6.5" ry="35" transform="rotate(-90 352 187.5)" fill="black"/>
<ellipse cx="352" cy="161.5" rx="6.5" ry="35" transform="rotate(-90 352 161.5)" fill="black"/>
<ellipse cx="352" cy="161.5" rx="6.5" ry="35" transform="rotate(-90 352 161.5)" fill="black"/>
<ellipse cx="96" cy="281.5" rx="6.5" ry="35" transform="rotate(-90 96 281.5)" fill="black"/>
<ellipse cx="96" cy="281.5" rx="6.5" ry="35" transform="rotate(-90 96 281.5)" fill="black"/>
<ellipse cx="96" cy="255.5" rx="6.5" ry="35" transform="rotate(-90 96 255.5)" fill="black"/>
<ellipse cx="96" cy="255.5" rx="6.5" ry="35" transform="rotate(-90 96 255.5)" fill="black"/>
</svg>
